<?xml version="1.0" standalone="no"?>
<!DOCTYPE svg PUBLIC "-//W3C//DTD SVG 20010904//EN"
 "http://www.w3.org/TR/2001/REC-SVG-20010904/DTD/svg10.dtd">
<svg version="1.0" xmlns="http://www.w3.org/2000/svg"
 width="486.000000pt" height="104.000000pt" viewBox="0 0 486.000000 104.000000"
 preserveAspectRatio="xMidYMid meet">

<g transform="translate(0.000000,104.000000) scale(0.100000,-0.100000)"
fill="#000000" stroke="none">
<path d="M723 748 c-6 -7 -45 -118 -88 -246 -72 -217 -76 -235 -61 -250 32
-32 49 -3 128 229 42 123 77 234 77 245 1 31 -38 45 -56 22z"/>
<path d="M1363 671 c-81 -37 -121 -140 -89 -226 45 -116 194 -158 290 -82 l27
22 -26 25 c-25 23 -26 23 -54 7 -16 -9 -47 -17 -69 -17 -71 0 -118 82 -88 153
15 38 59 67 98 67 13 0 37 -9 54 -19 32 -19 32 -19 53 3 30 32 27 42 -22 65
-54 26 -119 27 -174 2z"/>
<path d="M1744 671 c-92 -42 -131 -158 -85 -249 63 -123 260 -127 328 -7 25
44 30 115 12 162 -35 93 -158 138 -255 94z m159 -91 c43 -48 31 -141 -22 -170
-25 -13 -87 -13 -112 0 -48 26 -64 118 -28 164 44 55 115 58 162 6z"/>
<path d="M2920 675 c-75 -34 -113 -92 -112 -171 1 -78 40 -139 105 -163 48
-19 128 -13 177 12 l45 22 3 78 3 77 -76 0 -75 0 0 -30 c0 -28 2 -30 40 -30
35 0 40 -3 40 -24 0 -33 -26 -51 -74 -51 -55 0 -92 26 -107 74 -15 50 -6 86
31 122 33 34 83 39 131 13 28 -14 31 -14 49 8 26 31 25 35 -11 54 -46 23 -127
28 -169 9z"/>
<path d="M3687 676 c-142 -52 -160 -246 -32 -322 40 -23 54 -26 109 -22 78 5
128 38 158 106 64 145 -84 294 -235 238z m139 -90 c27 -27 34 -42 34 -72 0
-53 -19 -86 -60 -107 -63 -32 -129 0 -151 74 -10 31 -9 43 7 75 36 73 114 86
170 30z"/>
<path d="M4128 680 c-130 -39 -171 -209 -72 -302 37 -34 74 -48 129 -48 107 0
185 76 185 180 0 45 -26 104 -58 133 -43 39 -124 55 -184 37z m112 -77 c35
-20 50 -52 50 -102 0 -102 -127 -144 -190 -64 -23 30 -26 95 -6 132 27 49 94
65 146 34z"/>
<path d="M382 597 c-45 -45 -82 -89 -82 -97 0 -9 37 -52 83 -98 82 -82 118
-100 131 -66 9 22 -13 54 -74 106 -27 24 -50 48 -50 53 0 6 25 35 56 65 68 67
80 86 63 106 -22 26 -44 14 -127 -69z"/>
<path d="M831 666 c-17 -20 -5 -39 63 -106 31 -30 56 -59 56 -66 0 -6 -23 -30
-50 -53 -61 -51 -83 -82 -74 -105 13 -34 49 -16 132 67 45 45 82 89 82 97 0
21 -161 180 -181 180 -9 0 -22 -6 -28 -14z"/>
<path d="M2080 505 l0 -175 90 0 c130 0 185 26 221 105 39 85 9 180 -71 222
-37 20 -58 23 -142 23 l-98 0 0 -175z m205 89 c29 -19 49 -74 40 -113 -10 -47
-47 -74 -110 -79 l-55 -4 0 106 0 106 50 0 c29 0 61 -7 75 -16z"/>
<path d="M2480 505 l0 -175 135 0 135 0 0 35 0 35 -100 0 -100 0 0 35 0 35 85
0 85 0 0 35 0 34 -82 3 -83 3 0 35 0 35 93 3 92 3 0 29 0 30 -130 0 -130 0 0
-175z"/>
<path d="M3220 505 l0 -175 35 0 35 0 0 61 0 60 32 -3 c27 -2 40 -13 72 -60
38 -55 42 -58 83 -58 l42 0 -44 63 -44 64 26 14 c27 15 53 63 53 99 0 34 -28
79 -60 95 -20 10 -59 15 -130 15 l-100 0 0 -175z m188 99 c28 -20 30 -69 3
-84 -11 -5 -42 -10 -70 -10 l-51 0 0 55 0 55 48 0 c27 0 57 -7 70 -16z"/>
<path d="M4420 651 c0 -29 2 -30 53 -33 l52 -3 3 -142 3 -143 34 0 34 0 3 143
3 142 53 3 c50 3 52 4 52 33 l0 29 -145 0 -145 0 0 -29z"/>
</g>
</svg>
